<svg width="429" height="700" viewBox="0 0 429 700" fill="none" xmlns="http://www.w3.org/2000/svg">
<path fill-rule="evenodd" clip-rule="evenodd" d="M172.766 142.285C172.222 143.772 117.019 181.275 103.808 195.964C103.808 195.964 84.173 151.715 83.5197 150.301C78.4749 139.093 92.3028 116.099 66.0987 103.84C54.4484 98.3628 47.1897 108.301 55.755 116.207C57.058 117.59 58.6585 118.657 60.4369 119.327L48.8592 118.891C37.9711 119.181 2.54841 124.477 2.91134 133.399C3.1654 139.783 6.83103 139.238 7.62949 139.71C7.01612 140.061 6.49353 140.546 6.0943 141.129C5.69507 141.711 5.43376 142.376 5.32851 143.074C5.22689 143.772 5.28129 144.484 5.48817 145.158C5.69867 145.831 6.05801 146.449 6.54072 146.964C10.3516 151.643 16.0497 148.85 13.7995 150.228C9.04499 153.021 13.1824 161.979 19.7153 160.492C37.4993 156.358 44.7217 161.617 48.1333 168.218C63.1227 197.233 73.539 233.503 84.4271 244.384C109.651 269.119 135.783 235.062 167.903 176.342C179.045 155.922 191.965 171.083 177.811 152.658C177.23 151.788 172.766 142.285 172.766 142.285Z" fill="#FFE082"/>
<path d="M172.766 142.285C172.222 143.772 117.019 181.275 103.808 195.964C103.808 195.964 84.173 151.715 83.5197 150.301C78.4749 139.093 92.3028 116.099 66.0987 103.84C54.4484 98.3628 47.1897 108.301 55.755 116.207C57.058 117.59 58.6585 118.657 60.4369 119.327L48.8592 118.891C37.9711 119.181 2.54841 124.477 2.91134 133.399C3.1654 139.783 6.83103 139.238 7.62949 139.71C7.01612 140.061 6.49353 140.546 6.0943 141.129C5.69507 141.711 5.43376 142.376 5.32851 143.074C5.22689 143.772 5.28129 144.484 5.48817 145.158C5.69867 145.831 6.05801 146.449 6.54072 146.964C10.3516 151.643 16.0497 148.85 13.7995 150.228C9.04499 153.021 13.1824 161.979 19.7153 160.492C37.4993 156.358 44.7217 161.617 48.1333 168.218C63.1227 197.233 73.539 233.503 84.4271 244.384C109.651 269.119 135.783 235.062 167.903 176.342C179.045 155.922 191.965 171.083 177.811 152.658C177.23 151.788 172.766 142.285 172.766 142.285Z" stroke="black" stroke-width="0.57" stroke-miterlimit="22.93" stroke-linecap="round"/>
<path fill-rule="evenodd" clip-rule="evenodd" d="M157.269 152.84L145.038 164.301C137.779 197.959 132.516 206.301 126.891 239.27C134.149 233.249 133.097 249.607 140.356 243.586L157.269 152.84Z" fill="black"/>
<path d="M157.269 152.84L145.038 164.301C137.779 197.959 132.516 206.301 126.891 239.27C134.149 233.249 133.097 249.607 140.356 243.586L157.269 152.84Z" stroke="black" stroke-width="0.57" stroke-miterlimit="22.93" stroke-linecap="round"/>
<path fill-rule="evenodd" clip-rule="evenodd" d="M265.678 149.031C282.083 160.819 315.945 184.974 325.926 195.855C325.926 195.855 345.561 151.606 346.214 150.192C351.259 139.093 337.431 116.062 363.672 103.839C375.286 98.3626 382.545 108.3 373.979 116.062C372.677 117.444 371.075 118.511 369.297 119.181L380.875 118.746C391.763 119.036 427.186 124.332 426.823 133.254C426.569 139.637 422.903 139.093 422.068 139.565C422.683 139.913 423.212 140.395 423.613 140.976C424.015 141.557 424.28 142.222 424.388 142.92C424.496 143.617 424.445 144.331 424.238 145.006C424.032 145.681 423.674 146.301 423.194 146.819C419.383 151.497 413.685 148.705 415.935 150.083C420.689 152.876 416.552 161.834 410.019 160.347C392.235 156.212 385.013 161.471 381.601 168.072C366.612 197.088 356.195 233.358 345.307 244.239C329.991 259.254 316.272 249.679 297.29 232.995C302.828 253.991 305.056 275.724 303.896 297.41H118.144C120.794 213.99 157.777 196.689 157.777 115.083C157.777 84.0725 157.777 84.5802 157.777 53.4248C157.777 -12.9482 262.267 -15.4871 262.158 53.4248V120.378C262.103 130.04 263.287 139.67 265.678 149.031Z" fill="#FFE69B"/>
<path d="M265.678 149.031C282.083 160.819 315.945 184.974 325.926 195.855C325.926 195.855 345.561 151.606 346.214 150.192C351.259 139.093 337.431 116.062 363.672 103.839C375.286 98.3626 382.545 108.3 373.979 116.062C372.677 117.444 371.075 118.511 369.297 119.181L380.875 118.746C391.763 119.036 427.186 124.332 426.823 133.254C426.569 139.637 422.903 139.093 422.068 139.565C422.683 139.913 423.212 140.395 423.613 140.976C424.015 141.557 424.28 142.222 424.388 142.92C424.496 143.617 424.445 144.331 424.238 145.006C424.032 145.681 423.674 146.301 423.194 146.819C419.383 151.497 413.685 148.705 415.935 150.083C420.689 152.876 416.552 161.834 410.019 160.347C392.235 156.212 385.013 161.471 381.601 168.072C366.612 197.088 356.195 233.358 345.307 244.239C329.991 259.254 316.272 249.679 297.29 232.995C302.828 253.991 305.056 275.724 303.896 297.41H118.144C120.794 213.99 157.777 196.689 157.777 115.083C157.777 84.0725 157.777 84.5802 157.777 53.4248C157.777 -12.9482 262.267 -15.4871 262.158 53.4248V120.378C262.103 130.04 263.287 139.67 265.678 149.031Z" stroke="black" stroke-width="0.57" stroke-miterlimit="22.93" stroke-linecap="round"/>
<path fill-rule="evenodd" clip-rule="evenodd" d="M103.844 195.855C104.498 197.342 110.123 209.638 111.756 213.301C109.532 207.839 108.479 201.967 108.671 196.073C108.671 196.073 109.143 190.959 108.671 191.648C107.55 193.479 106.251 195.191 104.788 196.762C104.752 196.435 103.99 195.638 103.844 195.855Z" fill="black"/>
<path d="M103.844 195.855C104.498 197.342 110.123 209.638 111.756 213.301C109.532 207.839 108.479 201.967 108.671 196.073C108.671 196.073 109.143 190.959 108.671 191.648C107.55 193.479 106.251 195.191 104.788 196.762C104.752 196.435 103.99 195.638 103.844 195.855Z" stroke="black" stroke-width="0.57" stroke-linecap="round" stroke-linejoin="round"/>
<path fill-rule="evenodd" clip-rule="evenodd" d="M325.89 195.855C325.236 197.342 319.611 209.638 317.978 213.301C320.203 207.839 321.254 201.967 321.063 196.073C321.063 196.073 320.591 190.959 321.063 191.648C322.183 193.479 323.484 195.191 324.946 196.762C324.946 196.762 325.744 195.638 325.89 195.855Z" fill="black"/>
<path d="M325.89 195.855C325.236 197.342 319.611 209.638 317.978 213.301C320.203 207.839 321.254 201.967 321.063 196.073C321.063 196.073 320.591 190.959 321.063 191.648C322.183 193.479 323.484 195.191 324.946 196.762C324.946 196.762 325.744 195.638 325.89 195.855Z" stroke="black" stroke-width="0.57" stroke-linecap="round" stroke-linejoin="round"/>
<path fill-rule="evenodd" clip-rule="evenodd" d="M136.908 636.057H213.125C213.731 636.082 214.308 636.336 214.736 636.768C215.168 637.195 215.422 637.772 215.448 638.378L219.077 689.735H97.2027C94.9162 668.228 110.704 661.699 129.286 652.487C136.327 647.155 136.908 636.057 136.908 636.057Z" fill="#FFE69B"/>
<path d="M136.908 636.057H213.125C213.731 636.082 214.308 636.336 214.736 636.768C215.168 637.195 215.422 637.772 215.448 638.378L219.077 689.735H97.2027C94.9162 668.228 110.704 661.699 129.286 652.487C136.327 647.155 136.908 636.057 136.908 636.057Z" stroke="black" stroke-width="0.57" stroke-linecap="round" stroke-linejoin="round"/>
<path d="M97.2079 683H220.534C221.815 683 222.857 684.041 222.857 685.321V696.311C222.857 697.595 221.815 698.632 220.534 698.632H97.2079C95.9231 698.632 94.8851 697.595 94.8851 696.311V685.321C94.8851 684.041 95.9231 683 97.2079 683Z" fill="#FFE082"/>
<path d="M97.0575 683H220.384C221.665 683 222.707 684.041 222.707 685.321V696.311C222.707 697.595 221.665 698.632 220.384 698.632H97.0575C95.7727 698.632 94.7347 697.595 94.7347 696.311V685.321C94.7347 684.041 95.7727 683 97.0575 683Z" stroke="black" stroke-width="0.57" stroke-linecap="round" stroke-linejoin="round"/>
<path fill-rule="evenodd" clip-rule="evenodd" d="M211.963 636.057H288.18C288.786 636.082 289.363 636.336 289.792 636.768C290.223 637.195 290.478 637.772 290.503 638.378L294.132 689.735H172.258C169.971 668.228 185.759 661.699 204.342 652.487C211.237 647.155 211.963 636.057 211.963 636.057Z" fill="#FFE69B"/>
<path d="M211.963 636.057H288.18C288.786 636.082 289.363 636.336 289.792 636.768C290.223 637.195 290.478 637.772 290.503 638.378L294.132 689.735H172.258C169.971 668.228 185.759 661.699 204.342 652.487C211.237 647.155 211.963 636.057 211.963 636.057Z" stroke="black" stroke-width="0.57" stroke-linecap="round" stroke-linejoin="round"/>
<path d="M172.227 683H295.589C296.874 683 297.912 684.041 297.912 685.321V696.311C297.912 697.595 296.874 698.632 295.589 698.632H172.227C170.946 698.632 169.904 697.595 169.904 696.311V685.321C169.904 684.041 170.946 683 172.227 683Z" fill="#FFE082"/>
<path d="M172.076 683H295.439C296.724 683 297.762 684.041 297.762 685.321V696.311C297.762 697.595 296.724 698.632 295.439 698.632H172.076C170.795 698.632 169.754 697.595 169.754 696.311V685.321C169.754 684.041 170.795 683 172.076 683Z" stroke="black" stroke-width="0.57" stroke-linecap="round" stroke-linejoin="round"/>
<path fill-rule="evenodd" clip-rule="evenodd" d="M157.849 53.4973C157.849 84.5076 157.849 83.9998 157.849 115.155C157.868 124.269 157.349 133.377 156.289 142.43H264.263C262.847 135.262 262.129 127.974 262.121 120.668V53.7149C262.339 -15.2333 157.958 -12.8758 157.849 53.4973Z" fill="#FFE69B"/>
<path d="M157.849 53.4973C157.849 84.5076 157.849 83.9998 157.849 115.155C157.868 124.269 157.349 133.377 156.289 142.43H264.263C262.847 135.262 262.129 127.974 262.121 120.668V53.7149C262.339 -15.2333 157.958 -12.8758 157.849 53.4973Z" stroke="black" stroke-width="0.57" stroke-linecap="round" stroke-linejoin="round"/>
<path fill-rule="evenodd" clip-rule="evenodd" d="M262.049 47.9838C256.859 -13.2027 163.656 -11.2079 158.14 47.9838H262.049Z" fill="#FFE69B"/>
<path d="M262.049 47.9838C256.859 -13.2027 163.656 -11.2079 158.14 47.9838H262.049Z" stroke="black" stroke-width="0.57" stroke-linecap="round" stroke-linejoin="round"/>
<path fill-rule="evenodd" clip-rule="evenodd" d="M303.569 296.394C303.623 297.141 303.623 297.895 303.569 298.642C304.222 333.715 292.898 353.046 293.007 385.072C293.007 454.528 295.076 633.083 294.895 636.71H132.48C132.48 636.71 131.028 454.964 132.044 386.85C132.553 350.58 122.027 340.207 118.108 299.041C118.053 298.16 118.053 297.275 118.108 296.394H303.569Z" fill="#FFE082"/>
<path d="M303.569 296.394C303.623 297.141 303.623 297.895 303.569 298.642C304.222 333.715 292.898 353.046 293.007 385.072C293.007 454.528 295.076 633.083 294.895 636.71H132.48C132.48 636.71 131.028 454.964 132.044 386.85C132.553 350.58 122.027 340.207 118.108 299.041C118.053 298.16 118.053 297.275 118.108 296.394H303.569Z" stroke="black" stroke-width="0.57" stroke-linecap="round" stroke-linejoin="round"/>
<path fill-rule="evenodd" clip-rule="evenodd" d="M162.495 89.6219C163.689 89.6215 164.854 89.2697 165.845 88.6104C166.839 87.951 167.616 87.0134 168.081 85.9152C168.542 84.8166 168.669 83.6063 168.447 82.4355C168.226 81.2647 167.663 80.1857 166.829 79.333C165.997 78.4803 164.93 77.8924 163.765 77.6425C162.597 77.3926 161.384 77.492 160.274 77.9283C159.163 78.3646 158.209 79.1183 157.526 80.095C156.841 81.0721 156.463 82.2284 156.434 83.4198C156.416 84.2272 156.557 85.0306 156.851 85.7824C157.149 86.5339 157.592 87.2191 158.158 87.7968C158.721 88.3746 159.396 88.8338 160.143 89.1475C160.887 89.4609 161.686 89.6223 162.495 89.6219Z" fill="#FEFEFE"/>
<path d="M162.495 89.6219C163.689 89.6215 164.854 89.2697 165.845 88.6104C166.839 87.951 167.616 87.0134 168.081 85.9152C168.542 84.8166 168.669 83.6063 168.447 82.4355C168.226 81.2647 167.663 80.1857 166.829 79.333C165.997 78.4803 164.93 77.8924 163.765 77.6425C162.597 77.3926 161.384 77.492 160.274 77.9283C159.163 78.3646 158.209 79.1183 157.526 80.095C156.841 81.0721 156.463 82.2284 156.434 83.4198C156.416 84.2272 156.557 85.0306 156.851 85.7824C157.149 86.5339 157.592 87.2191 158.158 87.7968C158.721 88.3746 159.396 88.8338 160.143 89.1475C160.887 89.4609 161.686 89.6223 162.495 89.6219Z" stroke="black" stroke-width="0.57" stroke-linecap="round" stroke-linejoin="round"/>
<path fill-rule="evenodd" clip-rule="evenodd" d="M213.379 77.5078C212.174 77.5082 210.998 77.8672 209.996 78.5397C208.998 79.2118 208.221 80.1664 207.768 81.2816C207.314 82.3969 207.201 83.6221 207.448 84.8009C207.691 85.9796 208.283 87.0583 209.147 87.8994C210.011 88.7404 211.103 89.3055 212.286 89.5224C213.473 89.7397 214.696 89.5986 215.799 89.118C216.906 88.6371 217.843 87.8384 218.489 86.8232C219.138 85.8084 219.469 84.6235 219.44 83.4197C219.403 81.8387 218.746 80.335 217.614 79.2302C216.482 78.1255 214.961 77.5074 213.379 77.5078Z" fill="#FEFEFE"/>
<path d="M213.379 77.5078C212.174 77.5082 210.998 77.8672 209.996 78.5397C208.998 79.2118 208.221 80.1664 207.768 81.2816C207.314 82.3969 207.201 83.6221 207.448 84.8009C207.691 85.9796 208.283 87.0583 209.147 87.8994C210.011 88.7404 211.103 89.3055 212.286 89.5224C213.473 89.7397 214.696 89.5986 215.799 89.118C216.906 88.6371 217.843 87.8384 218.489 86.8232C219.138 85.8084 219.469 84.6235 219.44 83.4197C219.403 81.8387 218.746 80.335 217.614 79.2302C216.482 78.1255 214.961 77.5074 213.379 77.5078Z" stroke="black" stroke-width="0.57" stroke-linecap="round" stroke-linejoin="round"/>
<path d="M211.237 387.611C211.237 372.777 186.848 374.156 177.956 353.083" stroke="black" stroke-width="0.57" stroke-linecap="round" stroke-linejoin="round"/>
<path d="M164.745 60.062C162.353 59.7124 159.911 60.0918 157.74 61.1501" stroke="black" stroke-width="0.57" stroke-miterlimit="22.93" stroke-linecap="round"/>
<path d="M210.838 60.062C213.23 59.7124 215.672 60.0918 217.843 61.1501" stroke="black" stroke-width="0.57" stroke-miterlimit="22.93" stroke-linecap="round"/>
<path fill-rule="evenodd" clip-rule="evenodd" d="M261.25 132.892H157.813C155.889 132.892 154.042 133.656 152.681 135.016C151.32 136.377 150.554 138.222 150.554 140.145C150.554 142.069 151.32 143.915 152.681 145.275C154.042 146.635 155.889 147.399 157.813 147.399H261.25C263.174 147.399 265.021 146.635 266.382 145.275C267.743 143.915 268.509 142.069 268.509 140.145C268.509 138.222 267.743 136.377 266.382 135.016C265.021 133.656 263.174 132.892 261.25 132.892Z" fill="#FFE082"/>
<path d="M261.25 132.892H157.813C155.889 132.892 154.042 133.656 152.681 135.016C151.32 136.377 150.554 138.222 150.554 140.145C150.554 142.069 151.32 143.915 152.681 145.275C154.042 146.635 155.889 147.399 157.813 147.399H261.25C263.174 147.399 265.021 146.635 266.382 145.275C267.743 143.915 268.509 142.069 268.509 140.145C268.509 138.222 267.743 136.377 266.382 135.016C265.021 133.656 263.174 132.892 261.25 132.892Z" stroke="black" stroke-width="0.57" stroke-miterlimit="22.93" stroke-linecap="round"/>
<path d="M262.23 47.4766H103.118" stroke="black" stroke-width="0.57" stroke-miterlimit="22.93" stroke-linecap="round"/>
<path fill-rule="evenodd" clip-rule="evenodd" d="M156.361 147.218L154.801 153.637C174.973 150.376 195.323 148.305 215.738 147.435L156.361 147.218Z" fill="black"/>
<path d="M156.361 147.218L154.801 153.637C174.973 150.376 195.323 148.305 215.738 147.435L156.361 147.218Z" stroke="black" stroke-width="0.57" stroke-miterlimit="22.93" stroke-linecap="round"/>
<path fill-rule="evenodd" clip-rule="evenodd" d="M136.254 636.564L134.694 642.984C154.855 639.727 175.19 637.667 195.595 636.818L136.254 636.564Z" fill="black"/>
<path d="M136.254 636.564L134.694 642.984C154.855 639.727 175.19 637.667 195.595 636.818L136.254 636.564Z" stroke="black" stroke-width="0.57" stroke-miterlimit="22.93" stroke-linecap="round"/>
<path fill-rule="evenodd" clip-rule="evenodd" d="M212.326 636.564L210.766 642.984C230.927 639.727 251.262 637.667 271.667 636.818L212.326 636.564Z" fill="black"/>
<path d="M212.326 636.564L210.766 642.984C230.927 639.727 251.262 637.667 271.667 636.818L212.326 636.564Z" stroke="black" stroke-width="0.57" stroke-miterlimit="22.93" stroke-linecap="round"/>
<path fill-rule="evenodd" clip-rule="evenodd" d="M159.483 47.1504L157.886 53.5701C178.058 50.3087 198.408 48.2378 218.823 47.368L159.483 47.1504Z" fill="black"/>
<path d="M159.483 47.1504L157.886 53.5701C178.058 50.3087 198.408 48.2378 218.823 47.368L159.483 47.1504Z" stroke="black" stroke-width="0.57" stroke-miterlimit="22.93" stroke-linecap="round"/>
<path fill-rule="evenodd" clip-rule="evenodd" d="M163.039 82.9482C162.858 82.9482 162.68 83.0208 162.553 83.1499C162.422 83.2794 162.35 83.4545 162.35 83.6373C162.343 83.7291 162.357 83.8212 162.39 83.9072C162.422 83.9932 162.473 84.0711 162.539 84.1364C162.604 84.2013 162.684 84.2521 162.771 84.2848C162.854 84.3174 162.949 84.3315 163.039 84.3265C163.221 84.3265 163.399 84.2539 163.526 84.1244C163.656 83.9953 163.729 83.8201 163.729 83.6373C163.718 83.4574 163.646 83.287 163.519 83.1597C163.388 83.0324 163.221 82.9569 163.039 82.9482Z" fill="black"/>
<path d="M163.039 82.9482C162.858 82.9482 162.68 83.0208 162.553 83.1499C162.422 83.2794 162.35 83.4545 162.35 83.6373C162.343 83.7291 162.357 83.8212 162.39 83.9072C162.422 83.9932 162.473 84.0711 162.539 84.1364C162.604 84.2013 162.684 84.2521 162.771 84.2848C162.854 84.3174 162.949 84.3315 163.039 84.3265C163.221 84.3265 163.399 84.2539 163.526 84.1244C163.656 83.9953 163.729 83.8201 163.729 83.6373C163.718 83.4574 163.646 83.287 163.519 83.1597C163.388 83.0324 163.221 82.9569 163.039 82.9482Z" stroke="black" stroke-width="0.57" stroke-linecap="round" stroke-linejoin="round"/>
<path fill-rule="evenodd" clip-rule="evenodd" d="M213.27 84.3986C213.451 84.3899 213.622 84.3145 213.749 84.1872C213.876 84.0599 213.952 83.8894 213.959 83.7095C213.959 83.5267 213.887 83.3516 213.756 83.2224C213.629 83.0933 213.451 83.0204 213.27 83.0204C213.176 83.0157 213.081 83.0298 212.994 83.0621C212.907 83.0948 212.827 83.1445 212.758 83.209C212.689 83.2736 212.638 83.3512 212.598 83.4371C212.562 83.5235 212.544 83.616 212.544 83.7095C212.555 83.8956 212.635 84.0711 212.769 84.1992C212.903 84.3276 213.085 84.399 213.27 84.3986Z" fill="black"/>
<path d="M213.27 84.3986C213.451 84.3899 213.622 84.3145 213.749 84.1872C213.876 84.0599 213.952 83.8894 213.959 83.7095C213.959 83.5267 213.887 83.3516 213.756 83.2224C213.629 83.0933 213.451 83.0204 213.27 83.0204C213.176 83.0157 213.081 83.0298 212.994 83.0621C212.907 83.0948 212.827 83.1445 212.758 83.209C212.689 83.2736 212.638 83.3512 212.598 83.4371C212.562 83.5235 212.544 83.616 212.544 83.7095C212.555 83.8956 212.635 84.0711 212.769 84.1992C212.903 84.3276 213.085 84.399 213.27 84.3986Z" stroke="black" stroke-width="0.57" stroke-linecap="round" stroke-linejoin="round"/>
<path d="M211.128 636.71V387.14" stroke="black" stroke-width="0.57" stroke-miterlimit="22.93" stroke-linecap="round"/>
<path d="M6.93998 139.638C14.0681 136.463 21.7187 134.619 29.5146 134.197" stroke="black" stroke-width="0.57" stroke-miterlimit="22.93" stroke-linecap="round"/>
<path d="M422.794 139.638C415.664 136.463 408.013 134.619 400.219 134.197" stroke="black" stroke-width="0.57" stroke-miterlimit="22.93" stroke-linecap="round"/>
<path d="M13.1098 150.119C15.1785 149.321 17.2472 146.854 30.2041 146.854" stroke="black" stroke-width="0.57" stroke-miterlimit="22.93" stroke-linecap="round"/>
<path d="M416.624 150.119C414.555 149.321 412.487 146.854 399.53 146.854" stroke="black" stroke-width="0.57" stroke-miterlimit="22.93" stroke-linecap="round"/>
<path d="M192.691 104.384H177.267" stroke="#373435" stroke-width="0.57" stroke-miterlimit="22.93" stroke-linecap="round"/>
<path d="M59.6748 118.964C60.0014 123.969 58.0416 122.373 54.2307 127.959C52.4415 130.65 51.2075 133.671 50.6014 136.845" stroke="#373435" stroke-width="0.57" stroke-miterlimit="22.93" stroke-linecap="round"/>
<path d="M370.059 118.964C369.732 123.969 371.692 122.373 375.503 127.959C377.292 130.65 378.526 133.671 379.132 136.845" stroke="#373435" stroke-width="0.57" stroke-miterlimit="22.93" stroke-linecap="round"/>
<path d="M300.23 235.244L273.155 210.182" stroke="black" stroke-width="0.57" stroke-miterlimit="22.93" stroke-linecap="round"/>
<path fill-rule="evenodd" clip-rule="evenodd" d="M297.29 232.959L274.534 211.451L300.411 246.052L297.29 232.959Z" fill="black"/>
<path d="M297.29 232.959L274.534 211.451L300.411 246.052L297.29 232.959Z" stroke="black" stroke-width="0.57" stroke-linecap="round" stroke-linejoin="round"/>
</svg>
