<svg width="459" height="800" viewBox="0 0 459 800" fill="none" xmlns="http://www.w3.org/2000/svg">
<path fill-rule="evenodd" clip-rule="evenodd" d="M231.651 579.798C230.31 579.445 249.545 592.822 251.274 598.751C251.486 599.937 251.443 601.158 251.15 602.326C250.854 603.498 250.317 604.592 249.569 605.538C248.825 606.484 247.886 607.264 246.816 607.821C245.747 608.379 244.572 608.704 243.368 608.774C241.392 609.021 240.051 613.609 237.227 614.28C234.404 614.95 228.545 610.962 228.298 611.386C224.769 616.998 207.651 598.469 206.769 580.398C206.31 571.328 209.169 537.799 210.51 525.27C217.569 461.742 235.215 316.581 277.85 265.829C281.379 261.559 284.026 267.7 286.955 268.37C291.579 269.465 295.814 272.323 300.614 288.311C305.661 305.217 298.637 345.874 284.273 355.368C272.132 416.849 241.321 512.141 262.603 576.834C264.862 583.892 258.509 590.951 253.18 588.657C249.65 587.139 246.792 583.575 242.874 571.716C241.886 568.787 236.204 557.211 234.121 556.222C229.321 553.611 230.592 572.881 231.651 579.94" fill="#FFE082"/>
<path d="M243.439 608.773C253.039 609.268 254.274 597.197 246.615 591.515C236.733 584.174 230.875 581.88 229.992 565.504" stroke="black" stroke-width="0.57" stroke-linecap="round" stroke-linejoin="round"/>
<path d="M229.322 575.74C229.315 583.282 230.903 590.736 233.98 597.622C238.851 609.233 222.722 622.327 211.781 597.092C207.157 586.504 206.205 572.387 207.404 551.846C211.146 514.259 228.863 334.828 274.462 269.5" stroke="black" stroke-width="0.57" stroke-linecap="round" stroke-linejoin="round"/>
<path d="M229.534 579.798C228.581 572.739 230.204 553.469 235.004 556.081C237.086 557.069 241.78 568.61 242.733 571.575C246.686 583.433 248.592 586.927 252.051 588.516C260.627 592.468 264.862 583.857 262.992 577.928C256.646 559.575 253.833 540.188 254.698 520.788C256.18 468.342 272.062 406.19 282.156 355.156" stroke="black" stroke-width="0.57" stroke-linecap="round" stroke-linejoin="round"/>
<path d="M237.404 559.328C235.957 555.799 232.745 550.716 227.839 555.622" stroke="black" stroke-width="0.57" stroke-linecap="round" stroke-linejoin="round"/>
<path d="M228.298 611.386C240.722 620.35 247.78 607.045 240.827 598.574C233.028 589.045 229.287 583.504 229.498 569.634" stroke="black" stroke-width="0.57" stroke-linecap="round" stroke-linejoin="round"/>
<path fill-rule="evenodd" clip-rule="evenodd" d="M255.227 738.3H329.343C329.936 738.317 330.5 738.561 330.92 738.981C331.34 739.401 331.584 739.966 331.601 740.559L335.131 790.534H216.439C214.216 769.605 229.533 763.288 247.603 754.288C254.662 749.1 255.227 738.3 255.227 738.3Z" fill="#FFE69B"/>
<path d="M255.227 738.3H329.343C329.936 738.317 330.5 738.561 330.92 738.981C331.34 739.401 331.584 739.966 331.601 740.559L335.131 790.534H216.439C214.216 769.605 229.533 763.288 247.603 754.288C254.662 749.1 255.227 738.3 255.227 738.3Z" stroke="black" stroke-width="0.57" stroke-linecap="round" stroke-linejoin="round"/>
<path d="M336.185 784H216.259C215.009 784 214 785.013 214 786.259V796.953C214 798.199 215.009 799.211 216.259 799.211H336.185C337.431 799.211 338.444 798.199 338.444 796.953V786.259C338.444 785.013 337.431 784 336.185 784Z" fill="#FFE082"/>
<path d="M336.185 784H216.259C215.009 784 214 785.013 214 786.259V796.953C214 798.199 215.009 799.211 216.259 799.211H336.185C337.431 799.211 338.444 798.199 338.444 796.953V786.259C338.444 785.013 337.431 784 336.185 784Z" stroke="black" stroke-width="0.57" stroke-linecap="round" stroke-linejoin="round"/>
<path fill-rule="evenodd" clip-rule="evenodd" d="M328.143 738.3H402.259C402.852 738.317 403.416 738.561 403.836 738.981C404.256 739.401 404.5 739.966 404.518 740.559L408.047 790.534H289.32C287.097 769.605 302.414 763.288 320.484 754.288C327.649 749.1 328.143 738.3 328.143 738.3Z" fill="#FFE69B"/>
<path d="M328.143 738.3H402.259C402.852 738.317 403.416 738.561 403.836 738.981C404.256 739.401 404.5 739.966 404.518 740.559L408.047 790.534H289.32C287.097 769.605 302.414 763.288 320.484 754.288C327.649 749.1 328.143 738.3 328.143 738.3Z" stroke="black" stroke-width="0.57" stroke-linecap="round" stroke-linejoin="round"/>
<path d="M409.185 784H289.259C288.009 784 287 785.013 287 786.259V796.953C287 798.199 288.009 799.211 289.259 799.211H409.185C410.431 799.211 411.444 798.199 411.444 796.953V786.259C411.444 785.013 410.431 784 409.185 784Z" fill="#FFE082"/>
<path d="M409.185 784H289.259C288.009 784 287 785.013 287 786.259V796.953C287 798.199 288.009 799.211 289.259 799.211H409.185C410.431 799.211 411.444 798.199 411.444 796.953V786.259C411.444 785.013 410.431 784 409.185 784Z" stroke="black" stroke-width="0.57" stroke-linecap="round" stroke-linejoin="round"/>
<path fill-rule="evenodd" clip-rule="evenodd" d="M276.085 171.419C276.085 201.63 276.085 201.101 276.085 231.418C276.085 311.216 239.804 328.051 237.545 410.108C237.121 425.107 250.533 423.237 252.827 443.389C269.768 447.519 315.12 430.966 332.06 435.06C348.931 430.966 393.541 464.495 410.447 460.365C440.023 329.851 377.553 304.475 377.553 236.571V171.419C377.553 104.574 276.156 106.868 276.085 171.419Z" fill="#FFE69B"/>
<path d="M276.085 171.419C276.085 201.63 276.085 201.101 276.085 231.418C276.085 311.216 239.804 328.051 237.545 410.108C237.121 425.107 250.533 423.237 252.827 443.389C269.768 447.519 315.12 430.966 332.06 435.06C348.931 430.966 393.541 464.495 410.447 460.365C440.023 329.851 377.553 304.475 377.553 236.571V171.419C377.553 104.574 276.156 106.868 276.085 171.419Z" stroke="black" stroke-width="0.57" stroke-linecap="round" stroke-linejoin="round"/>
<path fill-rule="evenodd" clip-rule="evenodd" d="M276.085 171.42C276.085 201.631 276.085 201.101 276.085 231.418C276.114 240.298 275.619 249.171 274.603 257.994H379.671C378.298 251.02 377.599 243.926 377.589 236.818V171.667C377.554 104.574 276.156 106.868 276.085 171.42Z" fill="#FFE69B"/>
<path d="M276.085 171.42C276.085 201.631 276.085 201.101 276.085 231.418C276.114 240.298 275.619 249.171 274.603 257.994H379.671C378.298 251.02 377.599 243.926 377.589 236.818V171.667C377.554 104.574 276.156 106.868 276.085 171.42Z" stroke="black" stroke-width="0.57" stroke-linecap="round" stroke-linejoin="round"/>
<path fill-rule="evenodd" clip-rule="evenodd" d="M377.342 166.09C372.33 106.515 281.697 108.456 276.333 166.09H377.342Z" fill="#FFE69B"/>
<path d="M377.342 166.09C372.33 106.515 281.697 108.456 276.333 166.09H377.342Z" stroke="black" stroke-width="0.57" stroke-linecap="round" stroke-linejoin="round"/>
<path fill-rule="evenodd" clip-rule="evenodd" d="M417.293 407.778C417.293 408.519 417.293 409.261 417.47 409.966C418.105 444.095 407.094 462.906 407.164 494.07C407.376 561.657 409.211 735.441 409 738.935H251.062C251.062 738.935 249.686 562.116 250.639 495.835C251.168 460.542 240.933 450.413 237.121 410.355C237.068 409.497 237.068 408.636 237.121 407.778H417.293Z" fill="#FFE082"/>
<path d="M417.293 407.778C417.293 408.519 417.293 409.261 417.47 409.966C418.105 444.095 407.094 462.906 407.164 494.07C407.376 561.657 409.211 735.441 409 738.935H251.062C251.062 738.935 249.686 562.116 250.639 495.835C251.168 460.542 240.933 450.413 237.121 410.355C237.068 409.497 237.068 408.636 237.121 407.778H417.293Z" stroke="black" stroke-width="0.57" stroke-linecap="round" stroke-linejoin="round"/>
<path fill-rule="evenodd" clip-rule="evenodd" d="M280.567 206.606C281.743 206.613 282.893 206.272 283.871 205.625C284.852 204.977 285.618 204.054 286.07 202.971C286.525 201.888 286.648 200.695 286.423 199.542C286.197 198.39 285.635 197.33 284.81 196.497C283.98 195.664 282.925 195.096 281.774 194.865C280.62 194.633 279.427 194.748 278.344 195.196C277.257 195.644 276.329 196.404 275.676 197.379C275.023 198.355 274.673 199.503 274.673 200.677C274.67 201.454 274.818 202.224 275.111 202.944C275.407 203.663 275.842 204.317 276.389 204.868C276.936 205.419 277.585 205.856 278.305 206.154C279.022 206.453 279.791 206.606 280.567 206.606Z" fill="#FEFEFE"/>
<path d="M280.567 206.606C281.743 206.613 282.893 206.272 283.871 205.625C284.852 204.977 285.618 204.054 286.07 202.971C286.525 201.888 286.648 200.695 286.423 199.542C286.197 198.39 285.635 197.33 284.81 196.497C283.98 195.664 282.925 195.096 281.774 194.865C280.62 194.633 279.427 194.748 278.344 195.196C277.257 195.644 276.329 196.404 275.676 197.379C275.023 198.355 274.673 199.503 274.673 200.677C274.67 201.454 274.818 202.224 275.111 202.944C275.407 203.663 275.842 204.317 276.389 204.868C276.936 205.419 277.585 205.856 278.305 206.154C279.022 206.453 279.791 206.606 280.567 206.606Z" stroke="black" stroke-width="0.57" stroke-linecap="round" stroke-linejoin="round"/>
<path fill-rule="evenodd" clip-rule="evenodd" d="M330.084 194.783C328.909 194.776 327.758 195.119 326.777 195.768C325.796 196.417 325.03 197.342 324.578 198.427C324.126 199.512 324.003 200.707 324.232 201.86C324.458 203.014 325.026 204.074 325.856 204.905C326.689 205.736 327.748 206.302 328.902 206.529C330.056 206.757 331.249 206.637 332.336 206.183C333.419 205.73 334.344 204.965 334.993 203.985C335.643 203.004 335.985 201.853 335.978 200.677C335.978 199.114 335.357 197.615 334.252 196.509C333.147 195.404 331.647 194.783 330.084 194.783Z" fill="#FEFEFE"/>
<path d="M330.084 194.783C328.909 194.776 327.758 195.119 326.777 195.768C325.796 196.417 325.03 197.342 324.578 198.427C324.126 199.512 324.003 200.707 324.232 201.86C324.458 203.014 325.026 204.074 325.856 204.905C326.689 205.736 327.748 206.302 328.902 206.529C330.056 206.757 331.249 206.637 332.336 206.183C333.419 205.73 334.344 204.965 334.993 203.985C335.643 203.004 335.985 201.853 335.978 200.677C335.978 199.114 335.357 197.615 334.252 196.509C333.147 195.404 331.647 194.783 330.084 194.783Z" stroke="black" stroke-width="0.57" stroke-linecap="round" stroke-linejoin="round"/>
<path d="M327.508 496.542C327.508 482.107 303.826 483.483 295.144 462.942" stroke="black" stroke-width="0.57" stroke-linecap="round" stroke-linejoin="round"/>
<path d="M282.791 177.807C280.465 177.484 278.097 177.852 275.979 178.866" stroke="black" stroke-width="0.57" stroke-miterlimit="22.93" stroke-linecap="round"/>
<path d="M327.578 177.808C329.904 177.478 332.276 177.847 334.39 178.866" stroke="black" stroke-width="0.57" stroke-miterlimit="22.93" stroke-linecap="round"/>
<path fill-rule="evenodd" clip-rule="evenodd" d="M376.636 248.677H276.05C274.179 248.677 272.383 249.421 271.059 250.745C269.736 252.068 268.991 253.865 268.991 255.735C268.991 257.606 269.736 259.402 271.059 260.726C272.383 262.049 274.179 262.794 276.05 262.794H376.636C378.506 262.794 380.303 262.049 381.626 260.726C382.95 259.402 383.694 257.606 383.694 255.735C383.694 253.865 382.95 252.068 381.626 250.745C380.303 249.421 378.506 248.677 376.636 248.677Z" fill="#FFE69B"/>
<path d="M376.636 248.677H276.05C274.179 248.677 272.383 249.421 271.059 250.745C269.736 252.068 268.991 253.865 268.991 255.735C268.991 257.606 269.736 259.402 271.059 260.726C272.383 262.049 274.179 262.794 276.05 262.794H376.636C378.506 262.794 380.303 262.049 381.626 260.726C382.95 259.402 383.694 257.606 383.694 255.735C383.694 253.865 382.95 252.068 381.626 250.745C380.303 249.421 378.506 248.677 376.636 248.677Z" stroke="black" stroke-width="0.57" stroke-miterlimit="22.93" stroke-linecap="round"/>
<path d="M377.589 165.561H222.828" stroke="black" stroke-width="0.57" stroke-miterlimit="22.93" stroke-linecap="round"/>
<path fill-rule="evenodd" clip-rule="evenodd" d="M407.2 491.388L377.095 355.227C376.742 357.838 380.306 383.038 383.589 407.778C383.589 408.731 387.118 406.719 387.365 407.778C393.788 455.636 405.259 514.752 398.165 561.939C396.082 575.704 405.964 579.304 405.47 578.315C403.152 573.007 402.573 567.103 403.812 561.445C405.117 554.387 409.741 550.857 407.341 547.328L407.2 491.388Z" fill="black"/>
<path d="M407.2 491.388L377.095 355.227C376.742 357.838 380.306 383.038 383.589 407.778C383.589 408.731 387.118 406.719 387.365 407.778C393.788 455.636 405.259 514.752 398.165 561.939C396.082 575.704 405.964 579.304 405.47 578.315C403.152 573.007 402.573 567.103 403.812 561.445C405.117 554.387 409.741 550.857 407.341 547.328L407.2 491.388Z" stroke="black" stroke-width="0.57" stroke-miterlimit="22.93" stroke-linecap="round"/>
<path fill-rule="evenodd" clip-rule="evenodd" d="M251.662 335.498C247.251 348.662 232.533 384.909 233.522 413.355C234.227 433.896 237.051 443.99 244.815 469.048C250.392 487.224 250.286 505.753 250.709 494.671C251.909 463.86 236.063 433.649 237.051 407.779C238.367 383.102 243.291 358.749 251.662 335.498Z" fill="black"/>
<path d="M251.662 335.498C247.251 348.662 232.533 384.909 233.522 413.355C234.227 433.896 237.051 443.99 244.815 469.048C250.392 487.224 250.286 505.753 250.709 494.671C251.909 463.86 236.063 433.649 237.051 407.779C238.367 383.102 243.291 358.749 251.662 335.498Z" stroke="black" stroke-width="0.57" stroke-miterlimit="22.93" stroke-linecap="round"/>
<path fill-rule="evenodd" clip-rule="evenodd" d="M274.638 262.617L273.121 268.864C292.726 265.695 312.501 263.69 332.343 262.864L274.638 262.617Z" fill="black"/>
<path d="M274.638 262.617L273.121 268.864C292.726 265.695 312.501 263.69 332.343 262.864L274.638 262.617Z" stroke="black" stroke-width="0.57" stroke-miterlimit="22.93" stroke-linecap="round"/>
<path fill-rule="evenodd" clip-rule="evenodd" d="M254.591 738.83L253.039 745.042C272.662 741.918 292.447 739.914 312.296 739.042L254.591 738.83Z" fill="black"/>
<path d="M254.591 738.83L253.039 745.042C272.662 741.918 292.447 739.914 312.296 739.042L254.591 738.83Z" stroke="black" stroke-width="0.57" stroke-miterlimit="22.93" stroke-linecap="round"/>
<path fill-rule="evenodd" clip-rule="evenodd" d="M328.567 738.83L327.014 745.042C346.637 741.915 366.419 739.914 386.271 739.042L328.567 738.83Z" fill="black"/>
<path d="M328.567 738.83L327.014 745.042C346.637 741.915 366.419 739.914 386.271 739.042L328.567 738.83Z" stroke="black" stroke-width="0.57" stroke-miterlimit="22.93" stroke-linecap="round"/>
<path fill-rule="evenodd" clip-rule="evenodd" d="M277.638 165.313L276.121 171.56C295.68 168.396 315.406 166.393 335.202 165.561L277.638 165.313Z" fill="black"/>
<path d="M277.638 165.313L276.121 171.56C295.68 168.396 315.406 166.393 335.202 165.561L277.638 165.313Z" stroke="black" stroke-width="0.57" stroke-miterlimit="22.93" stroke-linecap="round"/>
<path d="M295.391 206.783C295.313 208 295.49 209.221 295.903 210.369C296.316 211.516 296.958 212.567 297.794 213.456C298.627 214.346 299.637 215.055 300.755 215.539C301.874 216.023 303.081 216.273 304.302 216.273C305.524 216.273 306.731 216.023 307.849 215.539C308.968 215.055 309.978 214.346 310.811 213.456C311.647 212.567 312.289 211.516 312.706 210.369C313.119 209.221 313.292 208 313.214 206.783" stroke="black" stroke-width="0.57" stroke-miterlimit="22.93" stroke-linecap="round"/>
<path fill-rule="evenodd" clip-rule="evenodd" d="M280.568 200.678C280.388 200.687 280.215 200.765 280.091 200.897C279.968 201.028 279.897 201.202 279.897 201.384C279.908 201.559 279.978 201.724 280.102 201.848C280.229 201.972 280.391 202.046 280.568 202.054C280.744 202.054 280.917 201.984 281.04 201.858C281.168 201.732 281.238 201.561 281.238 201.384C281.242 201.293 281.231 201.201 281.199 201.116C281.168 201.031 281.118 200.952 281.055 200.886C280.991 200.82 280.917 200.768 280.832 200.732C280.748 200.696 280.659 200.677 280.568 200.678Z" fill="black"/>
<path d="M280.568 200.678C280.388 200.687 280.215 200.765 280.091 200.897C279.968 201.028 279.897 201.202 279.897 201.384C279.908 201.559 279.978 201.724 280.102 201.848C280.229 201.972 280.391 202.046 280.568 202.054C280.744 202.054 280.917 201.984 281.04 201.858C281.168 201.732 281.238 201.561 281.238 201.384C281.242 201.293 281.231 201.201 281.199 201.116C281.168 201.031 281.118 200.952 281.055 200.886C280.991 200.82 280.917 200.768 280.832 200.732C280.748 200.696 280.659 200.677 280.568 200.678Z" stroke="black" stroke-width="0.57" stroke-linecap="round" stroke-linejoin="round"/>
<path fill-rule="evenodd" clip-rule="evenodd" d="M330.755 202.054C330.935 202.045 331.108 201.967 331.231 201.835C331.355 201.704 331.425 201.529 331.425 201.348C331.418 201.173 331.344 201.007 331.22 200.884C331.097 200.76 330.931 200.686 330.755 200.678C330.578 200.678 330.405 200.748 330.282 200.874C330.155 201 330.084 201.17 330.084 201.348C330.08 201.439 330.095 201.53 330.126 201.616C330.155 201.701 330.204 201.779 330.268 201.845C330.331 201.912 330.405 201.964 330.49 202C330.575 202.036 330.663 202.054 330.755 202.054Z" fill="black"/>
<path d="M330.755 202.054C330.935 202.045 331.108 201.967 331.231 201.835C331.355 201.704 331.425 201.529 331.425 201.348C331.418 201.173 331.344 201.007 331.22 200.884C331.097 200.76 330.931 200.686 330.755 200.678C330.578 200.678 330.405 200.748 330.282 200.874C330.155 201 330.084 201.17 330.084 201.348C330.08 201.439 330.095 201.53 330.126 201.616C330.155 201.701 330.204 201.779 330.268 201.845C330.331 201.912 330.405 201.964 330.49 202C330.575 202.036 330.663 202.054 330.755 202.054Z" stroke="black" stroke-width="0.57" stroke-linecap="round" stroke-linejoin="round"/>
<path d="M327.402 738.936V496.118" stroke="black" stroke-width="0.57" stroke-miterlimit="22.93" stroke-linecap="round"/>
<path fill-rule="evenodd" clip-rule="evenodd" d="M431.905 579.798C434.34 579.163 426.54 599.033 427.811 602.703C430.281 609.762 440.834 603.056 442.811 599.845C443.799 598.256 456.928 609.021 457.81 580.398C458.093 571.328 451.775 537.517 451.104 525.27C448.034 468.801 427.776 328.263 380.8 269.146C377.271 264.735 374.271 267.699 371.377 268.37C366.754 269.464 362.554 272.323 358.036 288.311C353.271 305.216 360.965 345.874 375.506 355.368C386.447 406.402 403.388 468.553 405.717 520.999C406.247 532.223 407.553 540.128 405.717 546.622C404.2 552.093 399.894 555.94 397.106 566.21C395.2 573.269 405.223 590.033 410.482 587.668C414.011 586.115 414.788 583.574 418.493 571.716C419.446 568.751 423.929 557.21 426.011 556.222C430.74 553.61 432.681 572.88 431.87 579.939" fill="#FFE69B"/>
<path d="M432.046 575.739C432.181 583.256 430.712 590.714 427.741 597.621C425.8 602.456 428.87 604.679 432.399 604.926C437.34 605.456 441.187 601.927 444.893 592.044C447.678 583.599 448.772 574.687 448.105 565.822C447.681 560.739 454.14 559.504 453.575 551.704C449.199 514.117 444.011 365.462 382.106 268.229" stroke="black" stroke-width="0.57" stroke-linecap="round" stroke-linejoin="round"/>
<path d="M431.905 579.798C432.717 572.739 430.776 553.469 426.046 556.081C423.964 557.069 419.482 568.61 418.529 571.574C417.046 576.304 416.623 581.88 415.529 584.456C411.717 593.068 400.353 581.88 398.482 574.151C394.953 559.292 405.117 548.351 405.753 546.481C407.976 540.022 406.07 528.834 405.753 520.858C403.423 468.412 386.482 406.261 375.542 355.227" stroke="black" stroke-width="0.57" stroke-linecap="round" stroke-linejoin="round"/>
<path fill-rule="evenodd" clip-rule="evenodd" d="M431.411 559.963C434.481 570.551 431.411 600.374 421.67 606.198C416.941 609.021 410.623 606.798 409.917 603.692C408.153 596.174 412.211 594.233 414.223 583.328C415.875 573.855 415.981 564.177 414.541 554.669C413.199 547.364 422.587 542.246 429.434 555.375C430.292 556.812 430.955 558.354 431.411 559.963Z" fill="#FFE69B"/>
<path d="M431.411 559.963C434.481 570.551 431.411 600.374 421.67 606.198C416.941 609.021 410.623 606.798 409.917 603.692C408.153 596.174 412.211 594.233 414.223 583.328C415.875 573.855 415.981 564.177 414.541 554.669C413.199 547.364 422.587 542.246 429.434 555.375C430.292 556.812 430.955 558.354 431.411 559.963Z" stroke="black" stroke-width="0.57" stroke-miterlimit="22.93" stroke-linecap="round"/>
<path d="M452.093 539.493C451.74 541.434 458.693 565.504 457.316 582.445C456.54 591.868 450.787 604.08 442.811 599.845" stroke="black" stroke-width="0.57" stroke-miterlimit="22.93" stroke-linecap="round"/>
<path fill-rule="evenodd" clip-rule="evenodd" d="M424.846 534.87C421.084 535.071 417.548 536.734 414.989 539.501C412.434 542.268 411.057 545.928 411.153 549.693C411.019 551.536 411.255 553.389 411.848 555.139C412.441 556.89 413.38 558.503 414.608 559.882C415.833 561.266 417.325 562.388 418.995 563.182C420.661 563.98 422.471 564.432 424.317 564.517C428.079 564.315 431.616 562.653 434.174 559.886C436.733 557.119 438.11 553.463 438.011 549.693C438.141 547.851 437.901 546.002 437.305 544.255C436.709 542.508 435.773 540.895 434.545 539.515C433.32 538.135 431.831 537.012 430.165 536.215C428.499 535.417 426.692 534.958 424.846 534.87Z" fill="#FFE69B"/>
<path fill-rule="evenodd" clip-rule="evenodd" d="M448.387 537.375C445.528 537.375 434.905 563.492 445.281 564.516C455.657 565.539 449.34 582.162 452.34 582.162C455.34 582.162 455.869 572.845 455.869 568.539C455.869 564.233 451.281 537.305 448.387 537.305" fill="#FFE69B"/>
<path d="M415.035 561.975C415.035 558.904 412.388 557.951 411.894 562.61C411.502 566.665 412.526 570.731 414.788 574.116" stroke="black" stroke-width="0.57" stroke-miterlimit="22.93" stroke-linecap="round"/>
<path fill-rule="evenodd" clip-rule="evenodd" d="M172.656 40.2627H91.474C70.4736 40.3365 50.3601 47.2938 35.5197 59.6171C20.6793 71.9401 12.3161 88.6298 12.2539 106.046C12.3165 123.485 20.6972 140.194 35.5657 152.525C50.4341 164.856 70.5822 171.806 91.6093 171.858H154.39C157.164 177.216 164.977 183.079 173.671 186.361C193.019 193.739 217.069 190.457 207.496 187.091C195.996 183.079 193.729 175.869 196.74 168.744C212.77 164.486 226.764 156.124 236.705 144.859C246.646 133.595 252.031 120.006 252.079 106.046C252.018 88.6006 243.626 71.8857 228.742 59.5579C213.859 47.2299 193.692 40.2922 172.656 40.2627Z" fill="#373435"/>
<path d="M172.656 40.2627H91.474C70.4736 40.3365 50.3601 47.2938 35.5197 59.6171C20.6793 71.9401 12.3161 88.6298 12.2539 106.046C12.3165 123.485 20.6972 140.194 35.5657 152.525C50.4341 164.856 70.5822 171.806 91.6093 171.858H154.39C157.164 177.216 164.977 183.079 173.671 186.361C193.019 193.739 217.069 190.457 207.496 187.091C195.996 183.079 193.729 175.869 196.74 168.744C212.77 164.486 226.764 156.124 236.705 144.859C246.646 133.595 252.031 120.006 252.079 106.046C252.018 88.6006 243.626 71.8857 228.742 59.5579C213.859 47.2299 193.692 40.2922 172.656 40.2627Z" stroke="#373435" stroke-width="0.57" stroke-miterlimit="22.93" stroke-linecap="round"/>
<path d="M68.352 82.272L66.024 82.224C66.168 82.776 66.168 83.808 66.168 84.36C66.168 85.752 66.216 88.68 66.432 90.744C67.104 96.96 69.264 99.216 71.544 99.216C73.176 99.216 74.616 97.824 76.08 93.768L74.568 92.064C73.944 94.464 72.816 96.936 71.592 96.936C69.864 96.936 68.712 94.272 68.304 90.264C68.136 88.296 68.112 86.088 68.136 84.6C68.16 83.976 68.232 82.824 68.352 82.272ZM80.832 82.92L78.984 83.568C81.264 86.376 82.728 91.32 83.136 95.64L85.08 94.872C84.72 90.816 82.992 85.704 80.832 82.92ZM95.016 80.184L94.536 82.032C96.384 82.512 101.568 83.568 103.872 83.88L104.328 82.056C102.192 81.84 97.08 80.856 95.016 80.184ZM94.488 84.576L92.472 84.312C92.328 86.808 91.728 91.848 91.248 94.032L93.048 94.464C93.192 94.08 93.408 93.696 93.768 93.288C95.448 91.248 98.04 90.072 101.184 90.072C103.632 90.072 105.432 91.44 105.432 93.336C105.432 96.624 101.736 98.808 94.152 97.896L94.728 99.84C103.632 100.584 107.448 97.68 107.448 93.408C107.448 90.576 105 88.368 101.328 88.368C98.448 88.368 95.808 89.304 93.504 91.32C93.744 89.76 94.176 86.208 94.488 84.576ZM114.84 89.424L115.656 91.416C117.192 90.792 122.448 88.608 125.4 88.608C127.872 88.608 129.48 90.12 129.48 92.16C129.48 96.072 124.92 97.56 119.712 97.704L120.504 99.552C126.96 99.168 131.424 96.816 131.424 92.184C131.424 88.92 128.952 86.88 125.544 86.88C122.736 86.88 118.776 88.32 117.072 88.848C116.328 89.088 115.536 89.304 114.84 89.424ZM143.16 80.304H140.712C140.856 81 140.928 81.84 140.928 82.728C140.928 85.248 140.688 91.32 140.688 94.872C140.688 98.808 143.064 100.224 146.52 100.224C151.776 100.224 154.896 97.224 156.528 94.944L155.184 93.312C153.456 95.808 150.96 98.256 146.568 98.256C144.288 98.256 142.632 97.344 142.632 94.704C142.632 91.128 142.824 85.44 142.92 82.728C142.968 81.936 143.04 81.096 143.16 80.304ZM171.456 87.072L172.8 86.04C172.128 85.32 170.832 84.24 170.184 83.784L168.864 84.792C169.752 85.416 170.784 86.328 171.456 87.072ZM165.672 85.56L163.776 86.328C164.136 86.712 164.52 87.312 164.736 87.672C165.384 88.728 166.44 90.96 167.328 93C168.36 95.472 169.368 98.592 169.968 100.872L171.864 100.368C171.192 98.28 170.016 94.68 168.96 92.28C168.192 90.48 166.944 87.96 166.272 86.712C166.104 86.376 165.864 85.944 165.672 85.56ZM161.712 91.272L162.648 93.144C164.76 92.184 171.312 88.536 174.48 88.536C176.64 88.536 177.36 89.736 177.36 90.744C177.36 92.04 176.568 93.216 174.264 93.216C173.28 93.216 172.2 92.904 171.456 92.544L171.384 94.32C172.056 94.584 173.256 94.92 174.336 94.92C177.672 94.92 179.136 93.24 179.136 90.744C179.136 88.728 177.72 86.88 174.528 86.88C171.48 86.88 166.104 89.688 163.416 90.744C163.08 90.888 162.432 91.104 161.712 91.272ZM188.352 82.272L186.024 82.224C186.168 82.776 186.168 83.808 186.168 84.36C186.168 85.752 186.216 88.68 186.432 90.744C187.104 96.96 189.264 99.216 191.544 99.216C193.176 99.216 194.616 97.824 196.08 93.768L194.568 92.064C193.944 94.464 192.816 96.936 191.592 96.936C189.864 96.936 188.712 94.272 188.304 90.264C188.136 88.296 188.112 86.088 188.136 84.6C188.16 83.976 188.232 82.824 188.352 82.272ZM200.832 82.92L198.984 83.568C201.264 86.376 202.728 91.32 203.136 95.64L205.08 94.872C204.72 90.816 202.992 85.704 200.832 82.92ZM76.728 108.968H74.688C74.76 109.28 74.784 110 74.784 110.408C74.784 112.088 74.784 114.608 74.784 116.768C74.784 118.88 75.024 123.488 75.024 125.336C75.024 127.016 73.848 127.424 72.456 127.424C70.08 127.424 69.144 126.608 69.144 125.48C69.144 124.376 70.368 123.488 72.672 123.488C76.944 123.488 80.496 125.888 82.656 127.88L83.76 126.176C81.912 124.664 77.952 121.928 72.888 121.928C69.432 121.928 67.344 123.392 67.344 125.576C67.344 127.904 69.24 129.128 72.696 129.128C75.816 129.128 76.92 127.424 76.92 125.744C76.92 124.136 76.56 119.936 76.56 116.768C76.56 114.752 76.56 111.536 76.608 110.576C76.632 109.856 76.68 109.376 76.728 108.968ZM67.56 111.56L67.584 113.336C69.096 113.528 72.048 113.744 73.704 113.744C76.92 113.744 80.352 113.432 83.064 113.12V111.368C79.944 111.872 76.728 112.088 73.68 112.088C72.096 112.088 69.096 111.848 67.56 111.56ZM67.44 116.672L67.464 118.472C69.168 118.664 71.808 118.784 73.464 118.784C77.064 118.784 79.992 118.616 83.256 118.208V116.408C80.136 116.864 76.944 117.104 73.464 117.104C71.88 117.104 69.144 116.936 67.44 116.672ZM104.009 109.496H101.969C102.041 109.928 102.113 110.768 102.113 111.32C102.113 112.64 102.113 114.32 102.089 115.664C102.065 117.368 101.969 119.456 101.825 120.368C101.729 120.92 101.489 121.016 100.889 121.016C100.337 121.016 99.3294 120.896 98.4894 120.704L98.4654 122.384C99.0894 122.504 100.745 122.72 101.633 122.72C102.713 122.72 103.265 122.408 103.481 121.328C103.721 120.08 103.793 117.488 103.841 115.64C103.889 114.416 103.889 112.736 103.913 111.248C103.913 110.72 103.961 109.904 104.009 109.496ZM94.5294 110.264H92.4174C92.5374 110.984 92.5614 111.56 92.5614 112.28C92.5614 113.384 92.5374 121.304 92.5854 123.32C92.6814 127.136 93.2094 128.432 98.7534 128.432C101.201 128.432 104.129 128.192 105.737 128.024L105.809 126.008C104.249 126.296 101.273 126.56 98.6574 126.56C94.5054 126.56 94.4814 125.648 94.3854 123.056C94.3374 121.4 94.4094 114.8 94.4334 112.208C94.4334 111.464 94.4574 110.816 94.5294 110.264ZM87.3534 116L87.5454 117.968C88.2174 117.872 89.2494 117.728 89.9694 117.632C93.0174 117.272 102.665 116.264 106.505 116.192C107.105 116.192 108.017 116.168 108.377 116.192V114.296C107.825 114.344 107.129 114.392 106.505 114.416C101.585 114.68 92.4414 115.64 89.8494 115.856C88.9854 115.952 88.0974 116 87.3534 116Z" fill="#F8F8F8"/>
</svg>
